# Blender 4.3.2
# www.blender.org
mtllib SimpleGuy.mtl
o Cube
v 0.868759 2.368938 0.004971
v 0.645152 2.055116 -0.000560
v 0.643653 2.374086 0.000000
v 0.481636 1.913662 0.000000
v 0.378594 1.302248 0.197241
v 0.401433 2.318967 0.183708
v 0.378594 1.302248 -0.197241
v 0.399947 2.325512 -0.186112
v 0.400722 2.374872 -0.000461
v 0.459375 1.302248 0.000000
v 0.417241 1.991677 -0.199962
v 0.417241 1.991677 0.199962
v 0.643653 2.321061 0.139434
v 0.643653 2.321061 -0.139434
v 0.644578 2.108534 -0.139735
v 0.644193 2.108326 0.139042
v 0.860822 2.304959 0.127213
v 0.946982 2.359265 -0.103702
v 1.082314 2.209895 -0.077379
v 0.997763 2.156599 0.153997
v 0.989853 2.501823 0.247518
v 1.089435 2.564592 0.020472
v 1.247924 2.427213 0.052006
v 1.148343 2.364445 0.279051
v 1.185982 2.717270 0.378697
v 1.275605 2.773761 0.174356
v 1.394473 2.670727 0.198006
v 1.304849 2.614236 0.402347
v -0.025310 1.344564 -0.197241
v -0.040977 2.388299 -0.175609
v -0.025310 1.344564 0.197241
v -0.009097 2.249746 0.180200
v -0.025058 1.966072 0.234910
v -0.025509 1.968001 -0.237820
v 1.073402 2.145790 0.044857
v 1.000022 2.567552 0.126111
v 1.237756 2.361485 0.173412
v 1.233128 2.792348 0.290498
v 1.391618 2.654970 0.322031
v -0.025310 1.202289 0.000000
v 0.378594 0.911211 0.197241
v 0.378594 0.911211 -0.197241
v 0.459375 0.911211 0.000000
v 0.055471 0.911211 -0.197241
v 0.055471 0.911211 0.197241
v -0.025310 0.911211 0.000000
v 0.378594 0.468823 0.197241
v 0.378594 0.468823 -0.197241
v 0.459375 0.468823 0.000000
v 0.055471 0.468823 -0.197241
v 0.055471 0.468823 0.197241
v -0.025310 0.468823 0.000000
v 0.338204 0.102090 0.177517
v 0.338204 0.102090 -0.177517
v 0.378594 0.061056 0.000000
v 0.095861 0.102090 -0.177517
v 0.095861 0.102090 0.177517
v 0.055471 0.061057 0.000000
v -0.025310 1.220073 -0.113414
v 1.260713 2.801965 0.224300
v 1.261433 2.383823 0.107151
v 1.093250 2.165529 -0.022613
v 0.898518 2.380002 -0.060578
v 0.204044 2.347313 -0.193815
v 0.382668 1.632024 -0.197632
v 0.449277 1.302248 -0.113414
v 0.401160 2.366329 0.105806
v 0.382668 1.632024 0.197632
v 0.208618 1.305774 0.227649
v 1.033604 2.581305 0.061821
v 0.645439 2.061785 -0.080731
v 0.402611 2.202868 -0.215901
v 0.402611 2.202868 0.215901
v 0.474977 1.921863 -0.108313
v 0.474977 1.921863 0.108313
v 0.211009 1.969364 -0.232827
v 0.400231 2.370410 -0.106731
v 0.643653 2.367457 0.080175
v 0.643653 2.215011 -0.160349
v 0.643653 2.215011 0.160349
v 0.645061 2.061530 0.079501
v 0.525184 2.321061 0.162557
v 0.525184 2.321061 -0.162557
v 0.528622 2.096819 -0.164105
v 0.528622 2.096819 0.164105
v 0.848892 2.348721 0.072173
v 1.022107 2.289837 -0.107260
v 0.922730 2.227196 0.158206
v 1.044879 2.135040 0.110501
v 0.817192 2.310598 -0.135481
v 0.840388 2.107937 -0.131707
v 0.826010 2.098830 0.122760
v 0.804349 2.302541 0.119475
v 0.976345 2.545213 0.192372
v 1.176148 2.500610 0.019211
v 1.061630 2.428427 0.280313
v 1.204174 2.347732 0.237702
v 1.073031 2.259259 0.215588
v 0.914840 2.399144 0.185442
v 1.013808 2.461525 -0.041781
v 1.170671 2.320807 -0.012016
v 1.204744 2.766687 0.351908
v 1.352871 2.743807 0.190494
v 1.256701 2.683189 0.409761
v 1.356447 2.635192 0.382092
v 1.343669 2.563539 0.134154
v 1.245793 2.501846 0.357311
v 1.191966 2.695034 0.103971
v 1.094091 2.633341 0.327127
v 0.208618 1.305774 -0.227649
v 0.643653 2.367458 -0.080175
v 1.412415 2.670470 0.254484
v 0.214283 2.302700 0.185705
v 0.211009 1.969364 0.232827
v 0.449277 1.302248 0.113414
v -0.025310 1.635741 -0.231758
v -0.025310 1.635741 0.231758
v -0.025310 1.220073 0.113414
v -0.019804 2.177072 0.213481
v -0.030379 2.222929 -0.236893
v 0.305611 2.376088 -0.000255
v 1.107836 2.701025 0.210298
v 1.345592 2.768150 0.333134
v 1.160568 2.254630 0.109134
v 0.924180 2.465145 0.064243
v 1.335665 2.503544 0.255628
v 0.839395 2.052983 -0.003407
v 0.806062 2.358047 -0.008562
v 0.535281 2.038152 0.000000
v 0.462157 1.623823 0.000000
v 0.048739 1.084633 0.197241
v 0.525184 2.374086 0.000000
v -0.015212 0.911211 -0.113414
v 0.449277 0.911211 -0.113414
v 0.217033 0.911211 0.226827
v 0.217033 0.911211 -0.226827
v 0.449277 0.911211 0.113414
v -0.015212 0.911211 0.113414
v 0.055471 0.704923 -0.197241
v 0.378594 1.083189 0.197241
v 0.378594 1.083189 -0.197241
v 0.048739 1.084633 -0.197241
v -0.025310 1.070695 0.000000
v 0.459375 1.083189 0.000000
v -0.015212 0.468823 -0.113414
v 0.449277 0.468823 -0.113414
v 0.217033 0.468823 0.226827
v 0.217033 0.468823 -0.226827
v 0.449277 0.468823 0.113414
v -0.015212 0.468823 0.113414
v 0.371675 0.240446 0.193862
v -0.025310 0.704923 0.000000
v 0.055471 0.704923 0.197241
v 0.378594 0.704923 -0.197241
v 0.459375 0.704923 0.000000
v 0.378594 0.704923 0.197241
v 0.062390 0.068086 -0.110857
v 0.371675 0.068085 -0.110857
v 0.217033 0.075114 0.190484
v 0.217033 0.075114 -0.190484
v 0.371675 0.068086 0.110857
v 0.062390 0.068085 0.110857
v 0.217033 -0.000493 0.000000
v 0.449277 0.235127 0.000000
v 0.062390 0.240446 0.193862
v 0.062390 0.240446 -0.193862
v -0.015212 0.235127 0.000000
v 0.371675 0.240446 -0.193862
v 0.958133 2.478549 -0.000267
v 0.207541 2.211826 -0.234367
v 0.525184 2.367457 0.093470
v 1.127753 2.241255 0.173586
v 0.215350 1.084071 -0.226827
v 1.368772 2.779127 0.264448
v 1.301709 2.488772 0.319006
v 0.452499 1.625597 0.112970
v 0.207838 1.632002 -0.231070
v 0.834678 2.056539 0.069536
v 0.828052 2.210007 -0.152528
v 0.534037 2.045450 -0.093857
v 0.525623 2.212716 0.187327
v 0.525623 2.212716 -0.187327
v 0.986095 2.325609 0.218194
v 0.813475 2.200815 0.140700
v 0.802769 2.348779 0.064530
v 0.843221 2.061929 -0.076715
v 1.358646 2.524661 0.189191
v 0.901161 2.442638 0.130367
v 1.183673 2.276504 0.042650
v 1.099974 2.397390 -0.043092
v 1.312158 2.743442 0.393527
v 1.276422 2.635727 0.103878
v 1.164208 2.564997 0.359725
v 1.083419 2.677986 0.275574
v 1.140356 2.713874 0.145758
v 0.207838 1.632002 0.231070
v 0.810064 2.353369 -0.082088
v 0.212500 2.190151 0.219312
v 0.534037 2.045450 0.093857
v 0.452499 1.625597 -0.112969
v 0.215350 1.084071 0.226827
v 0.525184 2.367457 -0.093470
v -0.015212 0.704923 0.113414
v -0.015212 0.704923 -0.113414
v -0.016895 1.073659 0.113414
v 0.449277 1.083189 0.113414
v -0.016895 1.073659 -0.113414
v 0.449277 1.083189 -0.113414
v 0.217033 0.237786 0.222261
v 0.439553 0.236457 0.112774
v 0.217033 0.704923 -0.226827
v 0.449277 0.704923 -0.113414
v 0.449277 0.704923 0.113414
v 0.217033 0.704923 0.226827
v 0.217033 0.009006 0.112135
v 0.217033 0.009006 -0.112135
v -0.005488 0.236456 -0.112774
v -0.005488 0.236457 0.112774
v 0.217033 0.237786 -0.222261
v 0.439553 0.236456 -0.112774
v -1.038713 2.374086 0.000000
v -0.694273 2.055937 0.000000
v -0.694273 2.374086 0.000000
v -0.532256 1.913662 0.000000
v -0.429213 1.302248 0.197241
v -0.450393 2.315653 0.186529
v -0.429213 1.302248 -0.197241
v -0.452252 2.323779 -0.182709
v -0.451338 2.372148 0.003958
v -0.509994 1.302248 0.000000
v -0.467860 1.991677 -0.199962
v -0.467860 1.991677 0.199962
v -0.694273 2.321061 0.139434
v -0.694273 2.321061 -0.139434
v -0.694273 2.108961 -0.139434
v -0.694273 2.108961 0.139434
v -1.038713 2.321061 0.127873
v -1.038713 2.321061 -0.127873
v -1.038713 2.108961 -0.127873
v -1.038713 2.108961 0.127873
v -1.315131 2.321061 0.127873
v -1.315131 2.321061 -0.127873
v -1.315131 2.108961 -0.127873
v -1.315131 2.108961 0.127873
v -1.633290 2.294548 0.115086
v -1.633290 2.294548 -0.115086
v -1.633290 2.135474 -0.115086
v -1.633290 2.135474 0.115086
v -1.038713 2.055937 0.000000
v -1.315131 2.374086 0.000000
v -1.315131 2.055937 0.000000
v -1.674412 2.321061 0.000000
v -1.674413 2.108961 0.000000
v -0.429213 0.911211 0.197241
v -0.429213 0.911211 -0.197241
v -0.509994 0.911211 0.000000
v -0.106090 0.911211 -0.197241
v -0.106090 0.911211 0.197241
v -0.429213 0.468823 0.197241
v -0.429213 0.468823 -0.197241
v -0.509994 0.468823 0.000000
v -0.106090 0.468823 -0.197241
v -0.106090 0.468823 0.197241
v -0.388823 0.102090 0.177517
v -0.388823 0.102090 -0.177517
v -0.429213 0.061056 0.000000
v -0.146481 0.102090 -0.177517
v -0.146481 0.102090 0.177517
v -0.106090 0.061057 0.000000
v -1.667368 2.316519 -0.071869
v -1.315131 2.062565 -0.073527
v -1.038713 2.062565 -0.073527
v -1.038713 2.367458 -0.073527
v -0.265346 2.340625 -0.182936
v -0.433288 1.632024 -0.197632
v -0.499896 1.302248 -0.113414
v -0.450778 2.363338 0.109277
v -0.433288 1.632024 0.197632
v -0.259237 1.305774 0.227649
v -1.315131 2.367458 -0.073527
v -0.694273 2.062565 -0.080175
v -0.453269 2.203041 -0.215873
v -0.453053 2.202118 0.215622
v -0.525597 1.921863 -0.108313
v -0.525597 1.921863 0.108313
v -0.261629 1.969364 -0.232827
v -0.451974 2.368438 -0.102513
v -0.694273 2.367457 0.080175
v -0.694273 2.215011 -0.160349
v -0.694273 2.215011 0.160349
v -0.694273 2.062565 0.080175
v -0.575803 2.321061 0.162557
v -0.575803 2.321061 -0.162557
v -0.579242 2.096819 -0.164105
v -0.579242 2.096819 0.164105
v -1.038713 2.367458 0.073527
v -1.038713 2.215011 -0.147054
v -1.038713 2.215011 0.147054
v -1.038713 2.062565 0.073527
v -0.863478 2.321061 -0.129318
v -0.863478 2.108961 -0.129318
v -0.863478 2.108961 0.129318
v -0.863478 2.321061 0.129318
v -1.315131 2.367458 0.073527
v -1.315131 2.215011 -0.147054
v -1.315131 2.215011 0.147054
v -1.315131 2.062565 0.073527
v -1.173444 2.108961 0.127873
v -1.173444 2.321061 0.127873
v -1.173444 2.321061 -0.127873
v -1.173444 2.108961 -0.127873
v -1.667368 2.316519 0.071869
v -1.660324 2.215011 -0.123492
v -1.660324 2.215011 0.123492
v -1.667369 2.113503 0.071869
v -1.500804 2.113503 -0.125683
v -1.500804 2.113503 0.125683
v -1.500804 2.316519 -0.125683
v -1.500804 2.316519 0.125683
v -0.259237 1.305774 -0.227649
v -0.694273 2.367458 -0.080175
v -1.667368 2.113503 -0.071869
v -0.254138 2.291753 0.195556
v -0.261621 1.969342 0.232780
v -0.499896 1.302248 0.113414
v -0.356264 2.368269 0.012474
v -1.506135 2.367457 0.000000
v -1.736097 2.215011 0.000000
v -1.173444 2.055937 0.000000
v -1.173444 2.374086 0.000000
v -1.506135 2.062565 0.000000
v -0.863478 2.055937 0.000000
v -0.863478 2.374086 0.000000
v -0.585901 2.038152 0.000000
v -0.512777 1.623823 0.000000
v -0.099359 1.084633 0.197241
v -0.575803 2.374086 0.000000
v -0.035407 0.911211 -0.113414
v -0.499896 0.911211 -0.113414
v -0.267652 0.911211 0.226827
v -0.267652 0.911211 -0.226827
v -0.499896 0.911211 0.113414
v -0.035407 0.911211 0.113414
v -0.106090 0.704923 -0.197241
v -0.429213 1.083189 0.197241
v -0.429213 1.083189 -0.197241
v -0.099359 1.084633 -0.197241
v -0.509994 1.083189 0.000000
v -0.035407 0.468823 -0.113414
v -0.499896 0.468823 -0.113414
v -0.267652 0.468823 0.226827
v -0.267652 0.468823 -0.226827
v -0.499896 0.468823 0.113414
v -0.035407 0.468823 0.113414
v -0.422295 0.240446 0.193862
v -0.106090 0.704923 0.197241
v -0.429213 0.704923 -0.197241
v -0.509994 0.704923 0.000000
v -0.429213 0.704923 0.197241
v -0.113009 0.068086 -0.110857
v -0.422295 0.068085 -0.110857
v -0.267652 0.075114 0.190484
v -0.267652 0.075114 -0.190484
v -0.422295 0.068086 0.110857
v -0.113009 0.068085 0.110857
v -0.267652 -0.000493 0.000000
v -0.499896 0.235127 0.000000
v -0.113009 0.240446 0.193862
v -0.113009 0.240446 -0.193862
v -0.035407 0.235127 0.000000
v -0.422295 0.240446 -0.193862
v -1.173444 2.367457 -0.073527
v -0.263170 2.209357 -0.230001
v -0.575803 2.367457 0.093470
v -1.173444 2.062565 0.073527
v -0.265969 1.084071 -0.226827
v -1.726577 2.215011 -0.072698
v -1.504802 2.068947 0.073113
v -0.503118 1.625597 0.112970
v -0.258457 1.632002 -0.231070
v -0.863478 2.062565 0.074358
v -0.863478 2.215011 -0.148716
v -0.584657 2.045450 -0.093857
v -0.576242 2.212716 0.187327
v -0.576242 2.212716 -0.187327
v -1.173444 2.215011 0.147054
v -0.863478 2.215011 0.148716
v -0.863478 2.367457 0.074358
v -0.863478 2.062565 -0.074358
v -1.504802 2.068947 -0.073113
v -1.173444 2.367457 0.073527
v -1.173444 2.062565 -0.073527
v -1.173444 2.215011 -0.147054
v -1.726577 2.215011 0.072698
v -1.503469 2.215011 -0.144094
v -1.503469 2.215011 0.144094
v -1.504802 2.361075 0.073113
v -1.504802 2.361075 -0.073113
v -0.258457 1.632002 0.231070
v -0.863478 2.367457 -0.074358
v -0.257749 2.185864 0.222533
v -0.584657 2.045450 0.093857
v -0.503118 1.625597 -0.112969
v -0.265969 1.084071 0.226827
v -0.575803 2.367457 -0.093470
v -0.035407 0.704923 0.113414
v -0.035407 0.704923 -0.113414
v -0.033724 1.073659 0.113414
v -0.499896 1.083189 0.113414
v -0.033724 1.073659 -0.113414
v -0.499896 1.083189 -0.113414
v -0.267652 0.237786 0.222261
v -0.490173 0.236457 0.112774
v -0.267652 0.704923 -0.226827
v -0.499896 0.704923 -0.113414
v -0.499896 0.704923 0.113414
v -0.267652 0.704923 0.226827
v -0.267652 0.009006 0.112135
v -0.267652 0.009006 -0.112135
v -0.045131 0.236456 -0.112774
v -0.045131 0.236457 0.112774
v -0.267652 0.237786 -0.222261
v -0.490173 0.236456 -0.112774
v 0.136196 3.262905 0.282538
v 0.246861 3.188054 0.048274
v 0.292198 2.973521 -0.157655
v 0.258819 2.686435 -0.248573
v 0.246721 3.189124 0.412180
v 0.438573 3.060812 0.267102
v 0.511250 2.835695 0.100842
v 0.445261 2.580827 -0.019435
v 0.235509 3.096677 0.572787
v 0.418692 2.901990 0.547998
v 0.485240 2.665900 0.427894
v 0.416982 2.458887 0.270462
v 0.107805 3.028820 0.689209
v 0.197686 2.782609 0.752657
v 0.229380 2.530282 0.667025
v 0.194818 2.344249 0.477411
v -0.076636 3.017305 0.706970
v -0.121776 2.762664 0.783421
v -0.137609 2.496477 0.708072
v -0.122974 2.316776 0.506988
v -0.013815 3.200752 0.507987
v -0.231513 3.067520 0.617760
v -0.390108 2.850401 0.627677
v -0.449156 2.611217 0.511788
v -0.393105 2.419758 0.330597
v -0.284357 3.155968 0.463321
v -0.481406 3.004094 0.355306
v -0.551520 2.775566 0.193051
v -0.476012 2.539003 0.041837
v -0.210441 3.241264 0.315918
v -0.353533 3.150572 0.106099
v -0.401520 2.933509 -0.094471
v -0.342574 2.656980 -0.200863
v -0.044352 3.283496 0.244521
v -0.065858 3.223721 -0.017564
v -0.072345 3.025159 -0.215571
v -0.056872 2.733565 -0.306337
vn -0.3355 0.6349 -0.6960
vn -0.7551 0.6034 -0.2564
vn -0.7104 0.6643 -0.2324
vn -0.3168 0.6499 -0.6909
vn 0.0158 -0.0010 -0.9999
vn 0.0038 0.3208 -0.9471
vn 0.0851 0.2639 -0.9608
vn 0.1279 -0.0331 -0.9912
vn 0.0022 0.9971 0.0757
vn 0.0616 0.8415 0.5367
vn 0.0897 0.8071 0.5835
vn 0.0043 0.9971 0.0761
vn 0.3219 -0.6529 0.6856
vn 0.7045 -0.6791 0.2062
vn 0.7178 -0.6565 0.2319
vn 0.3193 -0.6465 0.6928
vn -0.1507 -0.0270 -0.9882
vn 0.1772 0.0009 -0.9842
vn 0.1792 0.0009 -0.9838
vn -0.1775 -0.0043 -0.9841
vn 0.8529 0.4045 -0.3300
vn 0.3653 0.8271 -0.4271
vn 0.1327 0.9711 0.1982
vn 0.8805 0.3230 0.3470
vn 0.3305 -0.6327 0.7003
vn 0.7277 -0.6419 0.2416
vn 0.8259 -0.4529 0.3358
vn 0.4413 -0.5042 0.7423
vn 0.9962 -0.0092 0.0870
vn 0.9946 -0.0706 0.0765
vn 0.7944 -0.0670 0.6037
vn 0.7678 -0.0085 0.6406
vn -0.0689 -0.0613 -0.9957
vn 0.0120 -0.0117 -0.9999
vn 0.1723 -0.0151 -0.9849
vn 0.1820 -0.0066 -0.9833
vn 0.0133 -0.7841 0.6205
vn -0.0164 -0.9978 0.0645
vn 0.3532 -0.9348 0.0362
vn 0.1627 -0.7777 0.6072
vn 0.0380 -0.1924 -0.9806
vn 0.0402 0.1826 -0.9824
vn 0.1532 0.1949 -0.9688
vn 0.2801 -0.1524 -0.9478
vn 0.9099 -0.4095 -0.0670
vn 0.7102 -0.4021 -0.5780
vn 0.1946 -0.7767 -0.5991
vn 0.1528 -0.9850 -0.0799
vn 0.1803 0.2432 0.9531
vn 0.3077 -0.0967 0.9466
vn 0.2241 -0.1878 0.9563
vn 0.2010 0.2046 0.9580
vn 0.3077 -0.0967 -0.9466
vn 0.1953 0.2279 -0.9539
vn 0.2010 0.2046 -0.9580
vn 0.2212 -0.1849 -0.9575
vn -0.5638 -0.1544 0.8114
vn -0.2653 -0.3583 0.8951
vn -0.2507 -0.3606 0.8984
vn -0.5199 -0.1294 0.8444
vn 0.1363 0.2027 0.9697
vn 0.0881 -0.1788 0.9799
vn -0.1144 -0.1834 0.9764
vn -0.1824 0.2074 0.9611
vn 0.1146 0.9879 0.1049
vn 0.1584 0.7679 0.6207
vn -0.1131 0.7621 0.6375
vn -0.1326 0.9742 0.1828
vn -0.0047 -0.9948 -0.1013
vn 0.0184 -0.7752 -0.6314
vn 0.4164 -0.6756 -0.6085
vn 0.3949 -0.9110 -0.1192
vn 0.7968 -0.5984 0.0842
vn 0.8354 -0.3145 -0.4508
vn 0.9171 -0.2043 -0.3424
vn 0.8942 -0.4099 0.1801
vn -0.8387 0.5357 -0.0981
vn -0.8811 0.2489 0.4022
vn -0.8257 0.3258 0.4605
vn -0.7835 0.6178 -0.0671
vn 0.7639 -0.6437 0.0450
vn 0.8011 -0.3672 -0.4727
vn 0.8273 -0.3242 -0.4587
vn 0.7867 -0.6130 0.0730
vn 0.5210 0.1058 -0.8470
vn 0.2666 0.3547 -0.8962
vn 0.2517 0.3577 -0.8993
vn 0.5172 0.1311 -0.8458
vn 0.7917 0.2670 0.5495
vn 0.0439 0.9151 0.4007
vn -0.1988 0.4716 0.8591
vn 0.2888 0.0489 0.9561
vn 0.5248 0.1373 -0.8401
vn 0.2582 0.3683 -0.8931
vn 0.3220 0.4320 -0.8424
vn 0.5678 0.2190 -0.7935
vn -0.5079 -0.1146 0.8537
vn -0.2413 -0.3457 0.9068
vn -0.1949 -0.2617 0.9453
vn -0.4406 -0.0487 0.8964
vn -0.7600 0.6476 -0.0545
vn -0.8067 0.3530 0.4740
vn -0.7045 0.4890 0.5144
vn -0.6094 0.7912 0.0502
vn -0.3018 0.6712 -0.6771
vn -0.6910 0.6911 -0.2118
vn -0.5412 0.8343 -0.1054
vn -0.2287 0.7889 -0.5704
vn 0.1820 -0.0066 0.9833
vn 0.1723 -0.0151 0.9849
vn 0.0059 -0.0074 1.0000
vn -0.0689 -0.0613 0.9957
vn -0.1497 0.9631 0.2235
vn -0.0686 0.8524 0.5184
vn 0.0604 0.7845 -0.6172
vn 0.0888 0.9935 -0.0708
vn -0.2380 0.9712 -0.0132
vn -0.1282 0.7930 -0.5956
vn 0.0914 -0.0028 0.9958
vn -0.0075 0.2766 0.9610
vn -0.0730 0.3431 0.9365
vn -0.0108 0.0808 0.9967
vn 0.1154 0.8644 -0.4893
vn -0.0465 0.9944 -0.0944
vn 0.7102 -0.4021 0.5780
vn 0.9099 -0.4095 0.0670
vn 0.1527 -0.9851 0.0788
vn 0.1985 -0.7770 0.5973
vn 0.7678 -0.0085 -0.6406
vn 0.7944 -0.0670 -0.6037
vn 0.9946 -0.0706 -0.0765
vn 0.9962 -0.0092 -0.0870
vn 0.1772 0.0009 0.9842
vn -0.1507 -0.0270 0.9882
vn -0.1775 -0.0043 0.9841
vn 0.1792 0.0009 0.9838
vn 0.1018 0.8473 -0.5212
vn 0.0180 0.9983 -0.0555
vn 0.0043 0.9971 -0.0761
vn 0.0897 0.8071 -0.5835
vn -0.7645 -0.0000 0.6446
vn -0.9961 -0.0000 0.0887
vn -0.9961 -0.0000 -0.0887
vn -0.7645 -0.0000 -0.6446
vn -0.8608 -0.1747 0.4781
vn -0.9987 -0.0302 0.0398
vn -0.9967 -0.0052 0.0814
vn -0.7751 -0.0194 0.6315
vn 0.9961 -0.0000 0.0887
vn 0.7645 -0.0000 0.6446
vn -0.9987 -0.0302 -0.0398
vn -0.8608 -0.1747 -0.4781
vn -0.7751 -0.0194 -0.6315
vn -0.9967 -0.0052 -0.0814
vn 0.7645 -0.0000 -0.6446
vn 0.9961 -0.0000 -0.0887
vn 0.1805 -0.0197 0.9834
vn -0.1805 -0.0197 0.9834
vn -0.1643 -0.1735 0.9710
vn 0.1643 -0.1735 0.9710
vn 0.9953 -0.0424 0.0875
vn 0.7648 -0.0332 0.6434
vn 0.7548 -0.2846 0.5910
vn 0.9237 -0.3742 0.0827
vn -0.1801 -0.0000 -0.9836
vn 0.1801 -0.0000 -0.9836
vn 0.1801 -0.0000 0.9836
vn -0.1801 -0.0000 0.9836
vn -0.3556 -0.9312 0.0800
vn 0.3556 -0.9312 0.0801
vn 0.2684 -0.7627 0.5885
vn -0.2684 -0.7627 0.5885
vn -0.2684 -0.7627 -0.5885
vn 0.2684 -0.7627 -0.5885
vn 0.3556 -0.9312 -0.0801
vn -0.3556 -0.9312 -0.0800
vn -0.9953 -0.0424 -0.0875
vn -0.7648 -0.0332 -0.6434
vn -0.7548 -0.2846 -0.5910
vn -0.9237 -0.3742 -0.0827
vn -0.7648 -0.0332 0.6434
vn -0.9953 -0.0424 0.0875
vn -0.9237 -0.3742 0.0827
vn -0.7548 -0.2846 0.5910
vn -0.1805 -0.0197 -0.9834
vn 0.1805 -0.0197 -0.9834
vn 0.1643 -0.1735 -0.9710
vn -0.1643 -0.1735 -0.9710
vn 0.7648 -0.0332 -0.6434
vn 0.9953 -0.0424 -0.0875
vn 0.9237 -0.3742 -0.0827
vn 0.7548 -0.2846 -0.5910
vn -0.0000 0.7605 -0.6493
vn -0.0000 0.9960 -0.0898
vn -0.0255 0.0072 -0.9996
vn -0.0448 0.3410 -0.9390
vn -0.0548 0.3027 -0.9515
vn -0.1187 -0.0253 -0.9926
vn 0.0181 0.9968 0.0774
vn -0.0538 0.8399 0.5401
vn -0.0897 0.8071 0.5835
vn -0.0043 0.9971 0.0761
vn -0.0000 -0.7605 0.6493
vn -0.0000 -0.9960 0.0898
vn 0.1507 -0.0270 -0.9882
vn -0.1772 0.0009 -0.9842
vn -0.1792 0.0009 -0.9838
vn 0.1775 -0.0043 -0.9841
vn -0.6073 -0.3263 -0.7244
vn -0.6073 0.3263 -0.7244
vn -0.8583 0.5004 -0.1141
vn -0.8583 -0.5004 -0.1141
vn -0.0266 -0.7609 0.6483
vn -0.0341 -0.9955 0.0886
vn -0.2644 -0.9604 0.0876
vn -0.1974 -0.7667 0.6109
vn -0.9962 -0.0092 0.0870
vn -0.9946 -0.0706 0.0765
vn -0.7944 -0.0670 0.6037
vn -0.7678 -0.0085 0.6406
vn 0.0689 -0.0613 -0.9957
vn -0.0120 -0.0117 -0.9999
vn -0.1723 -0.0151 -0.9849
vn -0.1820 -0.0066 -0.9833
vn -0.0297 -0.7758 0.6303
vn -0.0015 -0.9963 0.0855
vn -0.0002 -0.9960 0.0893
vn -0.0042 -0.7623 0.6472
vn -0.0630 -0.1864 -0.9805
vn -0.0630 0.1864 -0.9805
vn -0.0087 0.1789 -0.9838
vn -0.0087 -0.1789 -0.9838
vn -0.9099 -0.4095 -0.0670
vn -0.7102 -0.4021 -0.5780
vn -0.2029 -0.7774 -0.5954
vn -0.1625 -0.9835 -0.0799
vn -0.1856 0.2343 0.9543
vn -0.3064 -0.0961 0.9470
vn -0.2236 -0.1872 0.9565
vn -0.2010 0.2046 0.9580
vn -0.3075 -0.0967 -0.9466
vn -0.1814 0.2422 -0.9531
vn -0.2010 0.2046 -0.9580
vn -0.2236 -0.1872 -0.9565
vn -0.0000 0.1780 0.9840
vn -0.0000 -0.1780 0.9840
vn -0.0630 0.1864 0.9805
vn -0.0630 -0.1864 0.9805
vn -0.0087 -0.1789 0.9838
vn -0.0087 0.1789 0.9838
vn -0.0015 0.9963 0.0855
vn -0.0297 0.7758 0.6303
vn -0.0042 0.7623 0.6472
vn -0.0002 0.9960 0.0893
vn -0.0015 -0.9963 -0.0855
vn -0.0297 -0.7758 -0.6303
vn -0.0042 -0.7623 -0.6472
vn -0.0002 -0.9960 -0.0893
vn -0.0341 -0.9955 -0.0886
vn -0.0266 -0.7609 -0.6483
vn -0.1974 -0.7667 -0.6109
vn -0.2644 -0.9604 -0.0876
vn -0.0000 0.9960 0.0898
vn -0.0000 0.7605 0.6493
vn -0.0000 -0.9960 -0.0898
vn -0.0000 -0.7605 -0.6493
vn -0.0000 -0.1780 -0.9840
vn -0.0000 0.1780 -0.9840
vn -0.8583 -0.5004 0.1141
vn -0.8583 0.5004 0.1141
vn -0.6073 0.3263 0.7244
vn -0.6073 -0.3262 0.7244
vn -0.0157 -0.1784 -0.9838
vn -0.0157 0.1784 -0.9838
vn -0.1181 0.1644 -0.9793
vn -0.1181 -0.1644 -0.9793
vn -0.0157 0.1784 0.9838
vn -0.0157 -0.1784 0.9838
vn -0.1181 -0.1644 0.9793
vn -0.1181 0.1644 0.9793
vn -0.0341 0.9955 0.0886
vn -0.0266 0.7609 0.6483
vn -0.1974 0.7667 0.6109
vn -0.2644 0.9604 0.0876
vn -0.0266 0.7609 -0.6483
vn -0.0341 0.9955 -0.0886
vn -0.2644 0.9604 -0.0876
vn -0.1974 0.7667 -0.6109
vn -0.1820 -0.0066 0.9833
vn -0.1721 -0.0150 0.9850
vn -0.0060 -0.0073 1.0000
vn 0.0689 -0.0613 0.9957
vn 0.1763 0.9592 0.2210
vn 0.0793 0.8484 0.5233
vn -0.0297 0.7758 -0.6303
vn -0.0015 0.9963 -0.0855
vn -0.0002 0.9960 -0.0893
vn -0.0042 0.7623 -0.6472
vn -0.0992 -0.0083 0.9950
vn -0.0140 0.2479 0.9687
vn 0.0807 0.3129 0.9464
vn 0.0164 0.0735 0.9972
vn -0.0791 0.8711 -0.4848
vn 0.0924 0.9929 -0.0755
vn -0.7102 -0.4021 0.5780
vn -0.9099 -0.4095 0.0670
vn -0.1625 -0.9835 0.0799
vn -0.2029 -0.7774 0.5954
vn -0.7678 -0.0085 -0.6406
vn -0.7944 -0.0670 -0.6037
vn -0.9946 -0.0706 -0.0765
vn -0.9962 -0.0092 -0.0870
vn -0.1772 0.0009 0.9842
vn 0.1507 -0.0270 0.9882
vn 0.1775 -0.0043 0.9841
vn -0.1792 0.0009 0.9838
vn -0.0740 0.8514 -0.5192
vn 0.0028 0.9987 -0.0516
vn -0.0043 0.9971 -0.0761
vn -0.0897 0.8071 -0.5835
vn 0.8608 -0.1747 0.4781
vn 0.9987 -0.0302 0.0398
vn 0.9967 -0.0052 0.0814
vn 0.7751 -0.0194 0.6315
vn 0.9987 -0.0302 -0.0398
vn 0.8608 -0.1747 -0.4781
vn 0.7751 -0.0194 -0.6315
vn 0.9967 -0.0052 -0.0814
vn 0.3556 -0.9312 0.0800
vn -0.3556 -0.9312 0.0801
vn -0.3556 -0.9312 -0.0801
vn 0.3556 -0.9312 -0.0800
vn 0.0267 -0.2629 -0.9645
vn 0.2151 0.6930 -0.6881
vn 0.0469 0.9545 0.2943
vn 0.2010 0.2878 -0.9364
vn 0.1583 0.9598 -0.2319
vn 0.7456 -0.3441 -0.5706
vn 0.7683 0.5210 -0.3718
vn 0.1764 0.9126 0.3690
vn 0.7879 0.0928 -0.6088
vn 0.5556 0.8315 -0.0022
vn 0.9675 0.1847 0.1729
vn 0.2206 0.8386 0.4981
vn 0.9654 -0.2582 -0.0372
vn 0.6959 0.6020 0.3916
vn 0.7308 -0.6761 -0.0938
vn 0.1588 0.7673 0.6214
vn 0.7010 -0.5662 0.4336
vn 0.5068 0.3817 0.7730
vn 0.4086 -0.8994 0.1554
vn 0.7144 -0.1447 0.6846
vn 0.1345 -0.7268 0.6735
vn 0.0752 0.2745 0.9586
vn 0.1054 -0.9663 0.2349
vn 0.1220 -0.2909 0.9489
vn 0.0199 0.7319 0.6811
vn -0.5699 -0.6397 0.5157
vn -0.3915 0.3266 0.8603
vn -0.3254 -0.9217 0.2111
vn -0.5611 -0.2189 0.7983
vn -0.1311 0.7492 0.6493
vn -0.9231 -0.3687 0.1094
vn -0.6792 0.5159 0.5221
vn -0.7503 -0.6608 0.0201
vn -0.9391 0.0579 0.3388
vn -0.2235 0.8109 0.5409
vn -0.8829 0.0044 -0.4696
vn -0.6450 0.7557 0.1135
vn -0.8155 -0.3184 -0.4833
vn -0.8826 0.4145 -0.2218
vn -0.2141 0.8882 0.4066
vn -0.3165 0.9301 -0.1862
vn -0.1283 -0.2346 -0.9636
vn -0.4233 0.6554 -0.6255
vn -0.1074 0.9449 0.3092
vn -0.3949 0.2546 -0.8827
vt 0.827941 0.537512
vt 0.824193 0.537512
vt 0.824193 0.531427
vt 0.827941 0.531427
vt 0.819117 0.537512
vt 0.819117 0.531427
vt 0.819117 0.525028
vt 0.824193 0.525028
vt 0.827941 0.525028
vt 0.630467 0.779306
vt 0.623683 0.779306
vt 0.623662 0.768671
vt 0.630387 0.768633
vt 0.620024 0.779306
vt 0.620023 0.768691
vt 0.620018 0.760059
vt 0.623510 0.759979
vt 0.629714 0.759319
vt 0.801400 0.892794
vt 0.794028 0.892794
vt 0.794946 0.887179
vt 0.801400 0.887179
vt 0.788575 0.892794
vt 0.790172 0.887179
vt 0.812663 0.558418
vt 0.807889 0.558418
vt 0.809486 0.553068
vt 0.813581 0.553068
vt 0.819117 0.558418
vt 0.819117 0.553068
vt 0.753056 0.555966
vt 0.749500 0.555980
vt 0.749508 0.549896
vt 0.753064 0.549881
vt 0.744486 0.555983
vt 0.744494 0.549898
vt 0.744503 0.543499
vt 0.749517 0.543497
vt 0.753073 0.543483
vt 0.666466 0.450545
vt 0.667622 0.439980
vt 0.674143 0.439676
vt 0.674112 0.447201
vt 0.667711 0.432303
vt 0.674155 0.432303
vt 0.679214 0.432303
vt 0.679228 0.439600
vt 0.679214 0.446897
vt 0.758939 0.527882
vt 0.761349 0.527257
vt 0.761648 0.530783
vt 0.758474 0.530890
vt 0.763605 0.527776
vt 0.764429 0.530755
vt 0.764695 0.535715
vt 0.761791 0.535804
vt 0.758474 0.535856
vt 0.749477 0.534930
vt 0.752917 0.535096
vt 0.744490 0.534872
vt 0.744333 0.527257
vt 0.749240 0.527574
vt 0.752120 0.529106
vt 0.811204 0.795295
vt 0.811200 0.785852
vt 0.818995 0.785832
vt 0.819031 0.795329
vt 0.811202 0.777284
vt 0.818677 0.777066
vt 0.824981 0.775210
vt 0.824814 0.785876
vt 0.824791 0.795564
vt 0.648748 0.779306
vt 0.640200 0.779306
vt 0.640309 0.768776
vt 0.649904 0.768741
vt 0.640293 0.760880
vt 0.649993 0.761064
vt 0.753827 0.571521
vt 0.749935 0.571535
vt 0.749546 0.563894
vt 0.753144 0.563879
vt 0.744465 0.571538
vt 0.744475 0.563896
vt 0.643952 0.420333
vt 0.640843 0.420333
vt 0.640837 0.412691
vt 0.643948 0.412691
vt 0.637713 0.420333
vt 0.637708 0.412691
vt 0.637708 0.404777
vt 0.640837 0.404777
vt 0.643947 0.404777
vt 0.803721 0.777066
vt 0.804739 0.773244
vt 0.811220 0.773454
vt 0.797371 0.775210
vt 0.799887 0.771755
vt 0.738065 0.576491
vt 0.733066 0.576719
vt 0.734720 0.571521
vt 0.738948 0.571535
vt 0.744523 0.576437
vt 0.689051 0.798628
vt 0.692408 0.798766
vt 0.692227 0.804268
vt 0.689139 0.804200
vt 0.698671 0.799407
vt 0.695719 0.804367
vt 0.709945 0.475508
vt 0.713437 0.475606
vt 0.713174 0.480755
vt 0.709980 0.480788
vt 0.706856 0.475439
vt 0.706944 0.480746
vt 0.623206 0.754424
vt 0.626604 0.754288
vt 0.620007 0.754444
vt 0.640924 0.425663
vt 0.637725 0.425683
vt 0.644322 0.425528
vt 0.706988 0.496276
vt 0.710030 0.496315
vt 0.710030 0.502398
vt 0.706988 0.502359
vt 0.713218 0.496285
vt 0.713218 0.502368
vt 0.713218 0.508765
vt 0.710030 0.508795
vt 0.706988 0.508756
vt 0.710024 0.488407
vt 0.706982 0.488368
vt 0.713212 0.488376
vt 0.813983 0.545426
vt 0.819117 0.545426
vt 0.810184 0.545426
vt 0.810284 0.537512
vt 0.814040 0.537512
vt 0.739356 0.563894
vt 0.735423 0.563879
vt 0.735533 0.555966
vt 0.739424 0.555980
vt 0.739441 0.543497
vt 0.739457 0.534930
vt 0.735549 0.543483
vt 0.735694 0.535096
vt 0.736349 0.529106
vt 0.739391 0.527574
vt 0.814040 0.531427
vt 0.810284 0.531427
vt 0.810284 0.525028
vt 0.814040 0.525028
vt 0.739432 0.549896
vt 0.735541 0.549881
vt 0.640837 0.398692
vt 0.643947 0.398692
vt 0.637708 0.398692
vt 0.637708 0.392293
vt 0.640837 0.392293
vt 0.643947 0.392293
vt 0.761870 0.540819
vt 0.758694 0.540811
vt 0.764648 0.540676
vt 0.763956 0.543663
vt 0.761726 0.544305
vt 0.759290 0.543769
vt 0.640835 0.383787
vt 0.643812 0.383907
vt 0.637840 0.383907
vt 0.638481 0.377924
vt 0.640825 0.376703
vt 0.643161 0.377924
vt 0.710041 0.517293
vt 0.707130 0.517135
vt 0.713093 0.517144
vt 0.712488 0.523105
vt 0.710119 0.524337
vt 0.707815 0.523099
vt 0.814068 0.516462
vt 0.819117 0.516402
vt 0.810435 0.516643
vt 0.811164 0.510659
vt 0.814150 0.509120
vt 0.819113 0.508802
vt 0.824164 0.516462
vt 0.827789 0.516643
vt 0.824074 0.509120
vt 0.827056 0.510659
vt 0.718932 0.797686
vt 0.709244 0.797857
vt 0.709118 0.790023
vt 0.718713 0.790066
vt 0.699202 0.790155
vt 0.699266 0.779493
vt 0.709005 0.779498
vt 0.717689 0.779449
vt 0.801400 0.897077
vt 0.787877 0.901426
vt 0.828739 0.553068
vt 0.824652 0.553068
vt 0.824250 0.545426
vt 0.828041 0.545426
vt 0.692502 0.790102
vt 0.689012 0.790016
vt 0.689007 0.779408
vt 0.692513 0.779475
vt 0.814214 0.892794
vt 0.814913 0.901426
vt 0.808770 0.892794
vt 0.817699 0.773244
vt 0.822546 0.771755
vt 0.750927 0.576491
vt 0.755555 0.576719
vt 0.797556 0.795564
vt 0.797525 0.785876
vt 0.803397 0.785832
vt 0.803371 0.795329
vt 0.736649 0.468925
vt 0.736430 0.461305
vt 0.742945 0.461617
vt 0.743084 0.468934
vt 0.735406 0.450688
vt 0.743041 0.454042
vt 0.748135 0.454353
vt 0.748023 0.461700
vt 0.748135 0.468942
vt 0.807852 0.887179
vt 0.812618 0.887179
vt 0.825570 0.558418
vt 0.830336 0.558418
vt 0.663178 0.540306
vt 0.668938 0.540067
vt 0.668938 0.546119
vt 0.663178 0.546358
vt 0.676764 0.540028
vt 0.676764 0.546080
vt 0.676764 0.553006
vt 0.668938 0.553045
vt 0.663178 0.553284
vt 0.684598 0.540057
vt 0.684598 0.546109
vt 0.690412 0.540289
vt 0.690412 0.546341
vt 0.690412 0.553267
vt 0.684598 0.553035
vt 0.663147 0.527324
vt 0.668934 0.530972
vt 0.668937 0.535295
vt 0.663175 0.535196
vt 0.676764 0.531489
vt 0.676764 0.535350
vt 0.828922 0.466535
vt 0.836748 0.466568
vt 0.836752 0.472995
vt 0.828926 0.472961
vt 0.842509 0.466804
vt 0.842513 0.473230
vt 0.842516 0.478276
vt 0.836755 0.478040
vt 0.828929 0.478006
vt 0.684594 0.530962
vt 0.684597 0.535286
vt 0.690382 0.527307
vt 0.690410 0.535179
vt 0.815274 0.466804
vt 0.821088 0.466568
vt 0.821092 0.472995
vt 0.815278 0.473230
vt 0.821095 0.478040
vt 0.815281 0.478276
vt 0.761129 0.468960
vt 0.761017 0.461719
vt 0.767820 0.461720
vt 0.767850 0.468651
vt 0.761129 0.454372
vt 0.767850 0.454688
vt 0.771976 0.456176
vt 0.772719 0.461670
vt 0.771976 0.467117
vt 0.828937 0.490985
vt 0.836764 0.491018
vt 0.836720 0.497867
vt 0.828938 0.497874
vt 0.842524 0.491254
vt 0.842292 0.497976
vt 0.841154 0.502147
vt 0.836565 0.503033
vt 0.828914 0.503216
vt 0.685296 0.439600
vt 0.685282 0.446897
vt 0.685282 0.432303
vt 0.692227 0.432303
vt 0.692241 0.439600
vt 0.692227 0.446897
vt 0.821099 0.484092
vt 0.815285 0.484327
vt 0.828933 0.484058
vt 0.821104 0.491018
vt 0.815289 0.491254
vt 0.836759 0.484092
vt 0.842520 0.484327
vt 0.754082 0.461709
vt 0.754194 0.468950
vt 0.754194 0.454362
vt 0.682057 0.580943
vt 0.689317 0.581471
vt 0.689009 0.589114
vt 0.682063 0.588520
vt 0.696636 0.581556
vt 0.696018 0.589107
vt 0.694338 0.593485
vt 0.688822 0.594240
vt 0.683403 0.593025
vt 0.684393 0.568719
vt 0.689884 0.568158
vt 0.689634 0.573759
vt 0.682681 0.573341
vt 0.695327 0.569178
vt 0.696636 0.573928
vt 0.684558 0.559884
vt 0.676768 0.559896
vt 0.690182 0.559990
vt 0.689066 0.564161
vt 0.684451 0.565050
vt 0.676795 0.565238
vt 0.668986 0.559894
vt 0.663413 0.560007
vt 0.669144 0.565060
vt 0.664554 0.564176
vt 0.699035 0.439600
vt 0.698943 0.446584
vt 0.698943 0.432616
vt 0.703005 0.434128
vt 0.703805 0.439600
vt 0.703005 0.445073
vt 0.821148 0.497867
vt 0.815524 0.497976
vt 0.821258 0.503033
vt 0.816643 0.502147
vt 0.797985 0.543956
vt 0.797985 0.550040
vt 0.794237 0.550040
vt 0.794237 0.543956
vt 0.789161 0.550040
vt 0.789161 0.543956
vt 0.794237 0.556439
vt 0.789161 0.556439
vt 0.797985 0.556439
vt 0.630387 0.789978
vt 0.623662 0.789940
vt 0.620023 0.789920
vt 0.623510 0.798632
vt 0.620018 0.798552
vt 0.629714 0.799292
vt 0.771444 0.846195
vt 0.771444 0.851810
vt 0.764990 0.851810
vt 0.764072 0.846195
vt 0.760216 0.851810
vt 0.758619 0.846195
vt 0.782707 0.523049
vt 0.783625 0.528400
vt 0.779530 0.528400
vt 0.777933 0.523049
vt 0.789161 0.523049
vt 0.789161 0.528400
vt 0.657642 0.548053
vt 0.657634 0.554137
vt 0.654078 0.554152
vt 0.654086 0.548068
vt 0.649064 0.554154
vt 0.649072 0.548070
vt 0.654069 0.560551
vt 0.649055 0.560553
vt 0.657625 0.560536
vt 0.674112 0.453889
vt 0.674143 0.461414
vt 0.667622 0.461110
vt 0.674155 0.468786
vt 0.667711 0.468786
vt 0.679228 0.461490
vt 0.679214 0.468786
vt 0.679214 0.454193
vt 0.699088 0.527932
vt 0.699553 0.530940
vt 0.696379 0.530833
vt 0.696678 0.527307
vt 0.693599 0.530804
vt 0.694423 0.527826
vt 0.696236 0.535854
vt 0.693332 0.535764
vt 0.699553 0.535905
vt 0.657448 0.568919
vt 0.654006 0.569114
vt 0.649020 0.569176
vt 0.653750 0.576441
vt 0.648842 0.576761
vt 0.656634 0.574895
vt 0.816158 0.729004
vt 0.808332 0.729038
vt 0.808367 0.719541
vt 0.816163 0.719561
vt 0.808686 0.710775
vt 0.816161 0.710993
vt 0.802549 0.719585
vt 0.802381 0.708919
vt 0.802571 0.729273
vt 0.649904 0.789870
vt 0.640310 0.789835
vt 0.640293 0.797731
vt 0.649993 0.797547
vt 0.658455 0.532498
vt 0.657752 0.540139
vt 0.654153 0.540154
vt 0.654562 0.532512
vt 0.649082 0.540156
vt 0.649093 0.532515
vt 0.643952 0.480757
vt 0.643948 0.488399
vt 0.640837 0.488399
vt 0.640843 0.480757
vt 0.637708 0.488399
vt 0.637713 0.480757
vt 0.640837 0.496313
vt 0.637708 0.496313
vt 0.643947 0.496313
vt 0.816143 0.707162
vt 0.822623 0.706953
vt 0.823641 0.710775
vt 0.827476 0.705464
vt 0.829992 0.708919
vt 0.642706 0.527568
vt 0.643575 0.532512
vt 0.639347 0.532498
vt 0.637708 0.527307
vt 0.649164 0.527626
vt 0.689051 0.760147
vt 0.689139 0.754493
vt 0.692227 0.754521
vt 0.692408 0.760126
vt 0.695719 0.754349
vt 0.698671 0.759446
vt 0.709945 0.425761
vt 0.709980 0.420384
vt 0.713174 0.420351
vt 0.713437 0.425589
vt 0.706856 0.425732
vt 0.706944 0.420342
vt 0.626604 0.804323
vt 0.623206 0.804187
vt 0.620007 0.804167
vt 0.640924 0.475427
vt 0.637725 0.475407
vt 0.644322 0.475562
vt 0.706988 0.404771
vt 0.706988 0.398688
vt 0.710030 0.398727
vt 0.710030 0.404809
vt 0.713218 0.398697
vt 0.713218 0.404780
vt 0.710030 0.392330
vt 0.713218 0.392300
vt 0.706988 0.392291
vt 0.706982 0.412685
vt 0.710024 0.412724
vt 0.713212 0.412694
vt 0.789161 0.536041
vt 0.784027 0.536041
vt 0.780228 0.536041
vt 0.784084 0.543956
vt 0.780328 0.543956
vt 0.643964 0.540154
vt 0.640030 0.540139
vt 0.644010 0.548068
vt 0.640119 0.548053
vt 0.643987 0.569114
vt 0.643993 0.560551
vt 0.640224 0.568919
vt 0.640102 0.560536
vt 0.643901 0.576441
vt 0.640863 0.574895
vt 0.784084 0.550040
vt 0.780328 0.550040
vt 0.784084 0.556439
vt 0.780328 0.556439
vt 0.644002 0.554152
vt 0.640110 0.554137
vt 0.643947 0.502398
vt 0.640837 0.502398
vt 0.637708 0.502398
vt 0.640837 0.508797
vt 0.637708 0.508797
vt 0.643947 0.508797
vt 0.699333 0.540861
vt 0.696157 0.540868
vt 0.693379 0.540726
vt 0.696301 0.544354
vt 0.694071 0.543713
vt 0.698737 0.543819
vt 0.643812 0.517183
vt 0.640835 0.517303
vt 0.637840 0.517183
vt 0.640825 0.524387
vt 0.638481 0.523166
vt 0.643161 0.523166
vt 0.707130 0.383905
vt 0.710041 0.383821
vt 0.713093 0.383913
vt 0.710119 0.376703
vt 0.712488 0.377912
vt 0.707815 0.377905
vt 0.789161 0.565066
vt 0.784112 0.565005
vt 0.780479 0.564825
vt 0.784194 0.572347
vt 0.781209 0.570808
vt 0.789156 0.572666
vt 0.797833 0.564825
vt 0.794208 0.565005
vt 0.794118 0.572347
vt 0.797100 0.570808
vt 0.718932 0.761215
vt 0.718713 0.768943
vt 0.709118 0.768971
vt 0.709244 0.761018
vt 0.699202 0.768817
vt 0.757921 0.837562
vt 0.771444 0.841911
vt 0.798783 0.528400
vt 0.798085 0.536041
vt 0.794294 0.536041
vt 0.794696 0.528400
vt 0.692502 0.768840
vt 0.689012 0.768794
vt 0.784258 0.846195
vt 0.778814 0.846195
vt 0.784957 0.837562
vt 0.804817 0.705464
vt 0.809663 0.706953
vt 0.655568 0.527568
vt 0.660196 0.527307
vt 0.829806 0.729273
vt 0.823992 0.729038
vt 0.823966 0.719541
vt 0.829838 0.719585
vt 0.736649 0.432455
vt 0.743084 0.432464
vt 0.742945 0.439887
vt 0.736430 0.440183
vt 0.743041 0.447356
vt 0.748023 0.439818
vt 0.748135 0.447059
vt 0.748135 0.432471
vt 0.782662 0.851810
vt 0.777896 0.851810
vt 0.795614 0.523049
vt 0.800380 0.523049
vt 0.690351 0.540306
vt 0.690351 0.546358
vt 0.684590 0.546119
vt 0.684590 0.540067
vt 0.684590 0.553045
vt 0.690351 0.553284
vt 0.668930 0.546109
vt 0.668930 0.540057
vt 0.663116 0.546341
vt 0.663116 0.540289
vt 0.668930 0.553035
vt 0.663116 0.553267
vt 0.690382 0.527324
vt 0.690353 0.535196
vt 0.684591 0.535295
vt 0.684594 0.530972
vt 0.833876 0.400244
vt 0.833872 0.406670
vt 0.826045 0.406704
vt 0.826050 0.400277
vt 0.820285 0.406939
vt 0.820289 0.400513
vt 0.826042 0.411749
vt 0.820282 0.411985
vt 0.833869 0.411715
vt 0.668931 0.535286
vt 0.668934 0.530962
vt 0.663118 0.535179
vt 0.663147 0.527307
vt 0.847524 0.400513
vt 0.847520 0.406939
vt 0.841706 0.406704
vt 0.841709 0.400277
vt 0.841702 0.411749
vt 0.847516 0.411985
vt 0.761129 0.432490
vt 0.767850 0.432805
vt 0.767820 0.439838
vt 0.761017 0.439836
vt 0.767850 0.446769
vt 0.761129 0.447078
vt 0.772719 0.439788
vt 0.771976 0.445234
vt 0.771976 0.434293
vt 0.833860 0.424694
vt 0.833860 0.431583
vt 0.826078 0.431576
vt 0.826034 0.424727
vt 0.820505 0.431686
vt 0.820274 0.424963
vt 0.826233 0.436742
vt 0.821644 0.435856
vt 0.833884 0.436925
vt 0.685282 0.454193
vt 0.685296 0.461490
vt 0.685282 0.468786
vt 0.692241 0.461490
vt 0.692227 0.468786
vt 0.692227 0.454193
vt 0.847513 0.418036
vt 0.841699 0.417801
vt 0.833865 0.417767
vt 0.841694 0.424727
vt 0.847508 0.424963
vt 0.826039 0.417801
vt 0.820278 0.418036
vt 0.754194 0.432480
vt 0.754082 0.439827
vt 0.754194 0.447068
vt 0.860198 0.456392
vt 0.859580 0.463943
vt 0.852572 0.463950
vt 0.852880 0.456307
vt 0.845625 0.463356
vt 0.845619 0.455779
vt 0.852384 0.469076
vt 0.846966 0.467861
vt 0.857900 0.468321
vt 0.858889 0.444015
vt 0.860198 0.448764
vt 0.853197 0.448596
vt 0.853446 0.442994
vt 0.846243 0.448178
vt 0.847955 0.443555
vt 0.676760 0.559896
vt 0.668971 0.559884
vt 0.663347 0.559990
vt 0.669077 0.565050
vt 0.664462 0.564161
vt 0.676733 0.565238
vt 0.690115 0.560007
vt 0.684542 0.559894
vt 0.684384 0.565060
vt 0.688974 0.564176
vt 0.698943 0.454506
vt 0.699035 0.461490
vt 0.698943 0.468474
vt 0.703805 0.461490
vt 0.703005 0.466962
vt 0.703005 0.456017
vt 0.847274 0.431686
vt 0.841650 0.431576
vt 0.841540 0.436742
vt 0.846155 0.435856
vt 0.771990 0.791257
vt 0.770608 0.771755
vt 0.785034 0.777683
vt 0.782546 0.790144
vt 0.653471 0.912676
vt 0.645452 0.912676
vt 0.645398 0.899029
vt 0.653409 0.896918
vt 0.780194 0.719073
vt 0.778048 0.737682
vt 0.771865 0.722525
vt 0.661419 0.912676
vt 0.661366 0.899029
vt 0.781764 0.705464
vt 0.767337 0.711443
vt 0.794451 0.795807
vt 0.788410 0.802781
vt 0.825918 0.837562
vt 0.833756 0.841319
vt 0.834456 0.860601
vt 0.826726 0.859827
vt 0.766429 0.733072
vt 0.817833 0.841465
vt 0.818533 0.860746
vt 0.757921 0.729711
vt 0.834456 0.882443
vt 0.826726 0.885049
vt 0.766429 0.745779
vt 0.818533 0.882589
vt 0.757921 0.751720
vt 0.794451 0.817648
vt 0.785644 0.816796
vt 0.771865 0.754700
vt 0.825918 0.901426
vt 0.817833 0.896772
vt 0.767337 0.767171
vt 0.785034 0.832985
vt 0.775111 0.818106
vt 0.833756 0.896627
vt 0.773864 0.919876
vt 0.765633 0.921109
vt 0.765633 0.904346
vt 0.773864 0.905358
vt 0.780194 0.755660
vt 0.781764 0.768835
vt 0.770608 0.834643
vt 0.757921 0.919853
vt 0.757921 0.905336
vt 0.705938 0.915157
vt 0.697893 0.919879
vt 0.696945 0.903509
vt 0.705117 0.900980
vt 0.787519 0.748212
vt 0.794451 0.755933
vt 0.757921 0.821845
vt 0.764555 0.819219
vt 0.690014 0.915147
vt 0.689193 0.900970
vt 0.696730 0.878288
vt 0.704931 0.879138
vt 0.790412 0.735839
vt 0.799461 0.734502
vt 0.712429 0.898216
vt 0.710552 0.884734
vt 0.689007 0.879128
vt 0.697349 0.856018
vt 0.705467 0.859851
vt 0.787519 0.724331
vt 0.794451 0.714570
vt 0.712429 0.871181
vt 0.689543 0.859841
vt 0.761457 0.792567
vt 0.757921 0.780797
vt 0.653409 0.928434
vt 0.645398 0.926323
vt 0.661366 0.926323
s 0
usemtl Material
f 18/1/1 63/2/1 169/3/1 100/4/1
f 63/2/2 1/5/2 125/6/2 169/3/2
f 169/3/3 125/6/3 36/7/3 70/8/3
f 100/4/4 169/3/4 70/8/4 22/9/4
f 34/10/5 120/11/5 170/12/5 76/13/5
f 120/11/6 30/14/6 64/15/6 170/12/6
f 170/12/7 64/15/7 8/16/7 72/17/7
f 76/13/8 170/12/8 72/17/8 11/18/8
f 9/19/9 67/20/9 171/21/9 132/22/9
f 67/20/10 6/23/10 82/24/10 171/21/10
f 171/25/11 82/26/11 13/27/11 78/28/11
f 132/29/12 171/25/12 78/28/12 3/30/12
f 20/31/13 89/32/13 172/33/13 98/34/13
f 89/32/14 35/35/14 124/36/14 172/33/14
f 172/33/15 124/36/15 37/37/15 97/38/15
f 98/34/16 172/33/16 97/38/16 24/39/16
f 29/40/17 110/41/17 173/42/17 142/43/17
f 110/41/18 7/44/18 141/45/18 173/42/18
f 173/42/19 141/45/19 42/46/19 136/47/19
f 142/43/20 173/42/20 136/47/20 44/48/20
f 27/49/21 103/50/21 174/51/21 112/52/21
f 103/50/22 26/53/22 60/54/22 174/51/22
f 174/51/23 60/54/23 38/55/23 123/56/23
f 112/52/24 174/51/24 123/56/24 39/57/24
f 24/39/25 97/38/25 175/58/25 107/59/25
f 97/38/26 37/37/26 126/60/26 175/58/26
f 175/58/27 126/60/27 39/61/27 105/62/27
f 107/59/28 175/58/28 105/62/28 28/63/28
f 10/64/29 130/65/29 176/66/29 115/67/29
f 130/65/30 4/68/30 75/69/30 176/66/30
f 176/66/31 75/69/31 12/70/31 68/71/31
f 115/67/32 176/66/32 68/71/32 5/72/32
f 29/73/33 116/74/33 177/75/33 110/76/33
f 116/74/34 34/10/34 76/13/34 177/75/34
f 177/75/35 76/13/35 11/18/35 65/77/35
f 110/76/36 177/75/36 65/77/36 7/78/36
f 16/79/37 81/80/37 178/81/37 92/82/37
f 81/80/38 2/83/38 127/84/38 178/81/38
f 178/81/39 127/84/39 35/35/39 89/32/39
f 92/82/40 178/81/40 89/32/40 20/31/40
f 15/85/41 79/86/41 179/87/41 91/88/41
f 79/86/42 14/89/42 90/90/42 179/87/42
f 179/87/43 90/90/43 18/91/43 87/92/43
f 91/88/44 179/87/44 87/92/44 19/93/44
f 4/68/45 74/94/45 180/95/45 129/96/45
f 74/94/46 11/97/46 84/98/46 180/95/46
f 180/99/47 84/100/47 15/101/47 71/102/47
f 129/103/48 180/99/48 71/102/48 2/83/48
f 6/104/49 73/105/49 181/106/49 82/107/49
f 73/105/50 12/108/50 85/109/50 181/106/50
f 181/110/51 85/111/51 16/112/51 80/113/51
f 82/114/52 181/110/52 80/113/52 13/115/52
f 11/18/53 72/17/53 182/116/53 84/117/53
f 72/17/54 8/16/54 83/118/54 182/116/54
f 182/119/55 83/120/55 14/89/55 79/86/55
f 84/121/56 182/119/56 79/86/56 15/85/56
f 17/122/57 88/123/57 183/124/57 99/125/57
f 88/123/58 20/126/58 98/127/58 183/124/58
f 183/124/59 98/127/59 24/128/59 96/129/59
f 99/125/60 183/124/60 96/129/60 21/130/60
f 13/115/61 80/113/61 184/131/61 93/132/61
f 80/113/62 16/112/62 92/133/62 184/131/62
f 184/131/63 92/133/63 20/126/63 88/123/63
f 93/132/64 184/131/64 88/123/64 17/122/64
f 3/30/65 78/28/65 185/134/65 128/135/65
f 78/28/66 13/27/66 93/136/66 185/134/66
f 185/134/67 93/136/67 17/137/67 86/138/67
f 128/135/68 185/134/68 86/138/68 1/5/68
f 2/83/69 71/102/69 186/139/69 127/84/69
f 71/102/70 15/101/70 91/140/70 186/139/70
f 186/139/71 91/140/71 19/141/71 62/142/71
f 127/84/72 186/139/72 62/142/72 35/35/72
f 37/37/73 61/143/73 187/144/73 126/60/73
f 61/143/74 23/145/74 106/146/74 187/144/74
f 187/144/75 106/146/75 27/147/75 112/148/75
f 126/60/76 187/144/76 112/148/76 39/61/76
f 1/5/77 86/138/77 188/149/77 125/6/77
f 86/138/78 17/137/78 99/150/78 188/149/78
f 188/149/79 99/150/79 21/151/79 94/152/79
f 125/6/80 188/149/80 94/152/80 36/7/80
f 35/35/81 62/142/81 189/153/81 124/36/81
f 62/142/82 19/141/82 101/154/82 189/153/82
f 189/153/83 101/154/83 23/145/83 61/143/83
f 124/36/84 189/153/84 61/143/84 37/37/84
f 19/93/85 87/92/85 190/155/85 101/156/85
f 87/92/86 18/91/86 100/157/86 190/155/86
f 190/155/87 100/157/87 22/158/87 95/159/87
f 101/156/88 190/155/88 95/159/88 23/160/88
f 39/57/89 123/56/89 191/161/89 105/162/89
f 123/56/90 38/55/90 102/163/90 191/161/90
f 191/161/91 102/163/91 25/164/91 104/165/91
f 105/162/92 191/161/92 104/165/92 28/166/92
f 23/160/93 95/159/93 192/167/93 106/168/93
f 95/159/94 22/158/94 108/169/94 192/167/94
f 192/167/95 108/169/95 26/170/95 103/171/95
f 106/168/96 192/167/96 103/171/96 27/172/96
f 21/130/97 96/129/97 193/173/97 109/174/97
f 96/129/98 24/128/98 107/175/98 193/173/98
f 193/173/99 107/175/99 28/176/99 104/177/99
f 109/174/100 193/173/100 104/177/100 25/178/100
f 36/7/101 94/152/101 194/179/101 122/180/101
f 94/152/102 21/151/102 109/181/102 194/179/102
f 194/179/103 109/181/103 25/182/103 102/183/103
f 122/180/104 194/179/104 102/183/104 38/184/104
f 22/9/105 70/8/105 195/185/105 108/186/105
f 70/8/106 36/7/106 122/180/106 195/185/106
f 195/185/107 122/180/107 38/184/107 60/187/107
f 108/186/108 195/185/108 60/187/108 26/188/108
f 5/189/109 68/190/109 196/191/109 69/192/109
f 68/190/110 12/108/110 114/193/110 196/191/110
f 196/191/111 114/193/111 33/194/111 117/195/111
f 69/192/112 196/191/112 117/195/112 31/196/112
f 9/19/113 121/197/113 113/198/113 67/20/113
f 67/20/114 113/198/114 6/23/114
f 14/199/115 111/200/115 197/201/115 90/202/115
f 111/200/116 3/30/116 128/135/116 197/201/116
f 197/201/117 128/135/117 1/5/117 63/2/117
f 90/202/118 197/201/118 63/2/118 18/1/118
f 12/108/119 73/105/119 198/203/119 114/193/119
f 73/105/120 6/104/120 113/204/120 198/203/120
f 198/203/121 113/204/121 32/205/121 119/206/121
f 114/193/122 198/203/122 119/206/122 33/194/122
f 8/207/123 64/208/123 77/209/123
f 77/209/124 64/208/124 121/197/124 9/19/124
f 12/70/125 75/69/125 199/210/125 85/211/125
f 75/69/126 4/68/126 129/96/126 199/210/126
f 199/212/127 129/103/127 2/83/127 81/80/127
f 85/213/128 199/212/128 81/80/128 16/79/128
f 7/214/129 65/215/129 200/216/129 66/217/129
f 65/215/130 11/97/130 74/94/130 200/216/130
f 200/216/131 74/94/131 4/68/131 130/65/131
f 66/217/132 200/216/132 130/65/132 10/64/132
f 5/218/133 69/219/133 201/220/133 140/221/133
f 69/219/134 31/222/134 131/223/134 201/220/134
f 201/220/135 131/223/135 45/224/135 135/225/135
f 140/221/136 201/220/136 135/225/136 41/226/136
f 8/207/137 77/209/137 202/227/137 83/228/137
f 77/209/138 9/19/138 132/22/138 202/227/138
f 202/229/139 132/29/139 3/30/139 111/200/139
f 83/230/140 202/229/140 111/200/140 14/199/140
f 45/231/141 138/232/141 203/233/141 153/234/141
f 138/232/142 46/235/142 152/236/142 203/233/142
f 203/233/142 152/236/142 52/237/142 150/238/142
f 153/234/141 203/233/141 150/238/141 51/239/141
f 46/235/143 133/240/143 204/241/143 152/236/143
f 133/240/144 44/242/144 139/243/144 204/241/144
f 204/241/144 139/243/144 50/244/144 145/245/144
f 152/236/143 204/241/143 145/245/143 52/237/143
f 31/246/145 118/247/145 205/248/145 131/249/145
f 118/247/146 40/250/146 143/251/146 205/248/146
f 205/248/147 143/251/147 46/235/147 138/232/147
f 131/249/148 205/248/148 138/232/148 45/231/148
f 10/252/149 115/253/149 206/254/149 144/255/149
f 115/253/150 5/256/150 140/257/150 206/254/150
f 206/254/150 140/257/150 41/258/150 137/259/150
f 144/255/149 206/254/149 137/259/149 43/260/149
f 40/250/151 59/261/151 207/262/151 143/251/151
f 59/261/152 29/263/152 142/264/152 207/262/152
f 207/262/153 142/264/153 44/242/153 133/240/153
f 143/251/154 207/262/154 133/240/154 46/235/154
f 7/265/155 66/266/155 208/267/155 141/268/155
f 66/266/156 10/252/156 144/255/156 208/267/156
f 208/267/156 144/255/156 43/260/156 134/269/156
f 141/268/155 208/267/155 134/269/155 42/270/155
f 47/271/157 147/272/157 209/273/157 151/274/157
f 147/272/158 51/275/158 165/276/158 209/273/158
f 209/273/159 165/276/159 57/277/159 159/278/159
f 151/274/160 209/273/160 159/278/160 53/279/160
f 49/280/161 149/281/161 210/282/161 164/283/161
f 149/281/162 47/284/162 151/285/162 210/282/162
f 210/282/163 151/285/163 53/286/163 161/287/163
f 164/283/164 210/282/164 161/287/164 55/288/164
f 44/48/165 136/47/165 211/289/165 139/290/165
f 136/47/166 42/46/166 154/291/166 211/289/166
f 211/289/166 154/291/166 48/292/166 148/293/166
f 139/290/165 211/289/165 148/293/165 50/294/165
f 42/270/155 134/269/155 212/295/155 154/296/155
f 134/269/156 43/260/156 155/297/156 212/295/156
f 212/295/156 155/297/156 49/280/156 146/298/156
f 154/296/155 212/295/155 146/298/155 48/299/155
f 43/260/149 137/259/149 213/300/149 155/297/149
f 137/259/150 41/258/150 156/301/150 213/300/150
f 213/300/150 156/301/150 47/284/150 149/281/150
f 155/297/149 213/300/149 149/281/149 49/280/149
f 41/226/167 135/225/167 214/302/167 156/303/167
f 135/225/168 45/224/168 153/304/168 214/302/168
f 214/302/168 153/304/168 51/275/168 147/272/168
f 156/303/167 214/302/167 147/272/167 47/271/167
f 58/305/169 163/306/169 215/307/169 162/308/169
f 163/306/170 55/309/170 161/310/170 215/307/170
f 215/307/171 161/310/171 53/311/171 159/312/171
f 162/308/172 215/307/172 159/312/172 57/313/172
f 56/314/173 160/315/173 216/316/173 157/317/173
f 160/315/174 54/318/174 158/319/174 216/316/174
f 216/316/175 158/319/175 55/309/175 163/306/175
f 157/317/176 216/316/176 163/306/176 58/305/176
f 52/237/177 145/245/177 217/320/177 167/321/177
f 145/245/178 50/244/178 166/322/178 217/320/178
f 217/320/179 166/322/179 56/323/179 157/324/179
f 167/321/180 217/320/180 157/324/180 58/325/180
f 51/239/181 150/238/181 218/326/181 165/327/181
f 150/238/182 52/237/182 167/321/182 218/326/182
f 218/326/183 167/321/183 58/325/183 162/328/183
f 165/327/184 218/326/184 162/328/184 57/329/184
f 50/294/185 148/293/185 219/330/185 166/331/185
f 148/293/186 48/292/186 168/332/186 219/330/186
f 219/330/187 168/332/187 54/333/187 160/334/187
f 166/331/188 219/330/188 160/334/188 56/335/188
f 48/299/189 146/298/189 220/336/189 168/337/189
f 146/298/190 49/280/190 164/283/190 220/336/190
f 220/336/191 164/283/191 55/288/191 158/338/191
f 168/337/192 220/336/192 158/338/192 54/339/192
f 238/340/193 310/341/193 372/342/193 273/343/193
f 273/343/194 372/342/194 330/344/194 221/345/194
f 372/342/194 280/346/194 250/347/194 330/344/194
f 310/341/193 242/348/193 280/346/193 372/342/193
f 34/10/195 286/349/195 373/350/195 120/11/195
f 120/11/196 373/350/196 274/351/196 30/14/196
f 373/350/197 282/352/197 228/353/197 274/351/197
f 286/349/198 231/354/198 282/352/198 373/350/198
f 229/355/199 337/356/199 374/357/199 277/358/199
f 277/358/200 374/357/200 292/359/200 226/360/200
f 374/361/201 288/362/201 233/363/201 292/364/201
f 337/365/202 223/366/202 288/362/202 374/361/202
f 240/367/203 308/368/203 375/369/203 299/370/203
f 299/370/204 375/369/204 329/371/204 249/372/204
f 375/369/204 307/373/204 251/374/204 329/371/204
f 308/368/203 244/375/203 307/373/203 375/369/203
f 29/40/205 347/376/205 376/377/205 320/378/205
f 320/378/206 376/377/206 346/379/206 227/380/206
f 376/377/207 341/381/207 255/382/207 346/379/207
f 347/376/208 257/383/208 341/381/208 376/377/208
f 247/384/209 322/385/209 377/386/209 313/387/209
f 313/387/210 377/386/210 270/388/210 246/389/210
f 377/386/211 328/390/211 252/391/211 270/388/211
f 322/385/212 253/392/212 328/390/212 377/386/212
f 244/375/213 317/393/213 378/394/213 307/373/213
f 307/373/214 378/394/214 331/395/214 251/374/214
f 378/394/215 315/396/215 253/397/215 331/395/215
f 317/393/216 248/398/216 315/396/216 378/394/216
f 230/399/217 325/400/217 379/401/217 335/402/217
f 335/402/218 379/401/218 285/403/218 224/404/218
f 379/401/219 278/405/219 232/406/219 285/403/219
f 325/400/220 225/407/220 278/405/220 379/401/220
f 29/73/221 320/408/221 380/409/221 116/74/221
f 116/74/222 380/409/222 286/349/222 34/10/222
f 380/409/223 275/410/223 231/354/223 286/349/223
f 320/408/224 227/411/224 275/410/224 380/409/224
f 236/412/225 302/413/225 381/414/225 291/415/225
f 291/415/226 381/414/226 332/416/226 222/417/226
f 381/414/227 299/370/227 249/372/227 332/416/227
f 302/413/228 240/367/228 299/370/228 381/414/228
f 235/418/229 301/419/229 382/420/229 289/421/229
f 289/421/230 382/420/230 300/422/230 234/423/230
f 382/420/231 297/424/231 238/425/231 300/422/231
f 301/419/232 239/426/232 297/424/232 382/420/232
f 224/404/233 334/427/233 383/428/233 284/429/233
f 284/429/234 383/428/234 294/430/234 231/431/234
f 383/432/235 281/433/235 235/434/235 294/435/235
f 334/436/236 222/417/236 281/433/236 383/432/236
f 226/437/237 292/438/237 384/439/237 283/440/237
f 283/440/238 384/439/238 295/441/238 232/442/238
f 384/443/239 290/444/239 236/445/239 295/446/239
f 292/447/240 233/448/240 290/444/240 384/443/240
f 231/354/241 294/449/241 385/450/241 282/352/241
f 282/352/242 385/450/242 293/451/242 228/353/242
f 385/452/243 289/421/243 234/423/243 293/453/243
f 294/454/244 235/418/244 289/421/244 385/452/244
f 237/455/245 309/456/245 386/457/245 298/458/245
f 298/458/246 386/457/246 308/459/246 240/460/246
f 386/457/246 306/461/246 244/462/246 308/459/246
f 309/456/245 241/463/245 306/461/245 386/457/245
f 233/448/247 303/464/247 387/465/247 290/444/247
f 290/444/248 387/465/248 302/466/248 236/445/248
f 387/465/249 298/458/249 240/460/249 302/466/249
f 303/464/250 237/455/250 298/458/250 387/465/250
f 223/366/251 333/467/251 388/468/251 288/362/251
f 288/362/252 388/468/252 303/469/252 233/363/252
f 388/468/253 296/470/253 237/471/253 303/469/253
f 333/467/254 221/345/254 296/470/254 388/468/254
f 222/417/255 332/416/255 389/472/255 281/433/255
f 281/433/256 389/472/256 301/473/256 235/434/256
f 389/472/257 272/474/257 239/475/257 301/473/257
f 332/416/258 249/372/258 272/474/258 389/472/258
f 251/374/259 331/395/259 390/476/259 271/477/259
f 271/477/260 390/476/260 316/478/260 243/479/260
f 390/476/261 322/480/261 247/481/261 316/478/261
f 331/395/262 253/397/262 322/480/262 390/476/262
f 221/345/263 330/344/263 391/482/263 296/470/263
f 296/470/264 391/482/264 309/483/264 237/471/264
f 391/482/264 304/484/264 241/485/264 309/483/264
f 330/344/263 250/347/263 304/484/263 391/482/263
f 249/372/265 329/371/265 392/486/265 272/474/265
f 272/474/266 392/486/266 311/487/266 239/475/266
f 392/486/266 271/477/266 243/479/266 311/487/266
f 329/371/265 251/374/265 271/477/265 392/486/265
f 239/426/267 311/488/267 393/489/267 297/424/267
f 297/424/268 393/489/268 310/490/268 238/425/268
f 393/489/268 305/491/268 242/492/268 310/490/268
f 311/488/267 243/493/267 305/491/267 393/489/267
f 253/392/269 315/494/269 394/495/269 328/390/269
f 328/390/270 394/495/270 312/496/270 252/391/270
f 394/495/271 314/497/271 245/498/271 312/496/271
f 315/494/272 248/499/272 314/497/272 394/495/272
f 243/493/273 316/500/273 395/501/273 305/491/273
f 305/491/274 395/501/274 318/502/274 242/492/274
f 395/501/275 313/503/275 246/504/275 318/502/275
f 316/500/276 247/505/276 313/503/276 395/501/276
f 241/463/277 319/506/277 396/507/277 306/461/277
f 306/461/278 396/507/278 317/508/278 244/462/278
f 396/507/279 314/509/279 248/510/279 317/508/279
f 319/506/280 245/511/280 314/509/280 396/507/280
f 250/347/281 327/512/281 397/513/281 304/484/281
f 304/484/282 397/513/282 319/514/282 241/485/282
f 397/513/283 312/515/283 245/516/283 319/514/283
f 327/512/284 252/517/284 312/515/284 397/513/284
f 242/348/285 318/518/285 398/519/285 280/346/285
f 280/346/286 398/519/286 327/512/286 250/347/286
f 398/519/287 270/520/287 252/517/287 327/512/287
f 318/518/288 246/521/288 270/520/288 398/519/288
f 225/522/289 279/523/289 399/524/289 278/525/289
f 278/525/290 399/524/290 324/526/290 232/442/290
f 399/524/291 117/195/291 33/194/291 324/526/291
f 279/523/292 31/196/292 117/195/292 399/524/292
f 229/355/293 277/358/293 323/527/293 326/528/293
f 277/358/294 226/360/294 323/527/294
f 234/529/295 300/530/295 400/531/295 321/532/295
f 321/532/296 400/531/296 333/467/296 223/366/296
f 400/531/297 273/343/297 221/345/297 333/467/297
f 300/530/298 238/340/298 273/343/298 400/531/298
f 232/442/299 324/526/299 401/533/299 283/440/299
f 283/440/300 401/533/300 323/534/300 226/437/300
f 401/533/301 119/206/301 32/205/301 323/534/301
f 324/526/302 33/194/302 119/206/302 401/533/302
f 228/535/303 287/536/303 274/537/303
f 287/536/304 229/355/304 326/528/304 274/537/304
f 232/406/305 295/538/305 402/539/305 285/403/305
f 285/403/306 402/539/306 334/427/306 224/404/306
f 402/540/307 291/415/307 222/417/307 334/436/307
f 295/541/308 236/412/308 291/415/308 402/540/308
f 227/542/309 276/543/309 403/544/309 275/545/309
f 275/545/310 403/544/310 284/429/310 231/431/310
f 403/544/311 335/402/311 224/404/311 284/429/311
f 276/543/312 230/399/312 335/402/312 403/544/312
f 225/546/313 345/547/313 404/548/313 279/549/313
f 279/549/314 404/548/314 336/550/314 31/222/314
f 404/548/315 340/551/315 258/552/315 336/550/315
f 345/547/316 254/553/316 340/551/316 404/548/316
f 228/535/317 293/554/317 405/555/317 287/536/317
f 287/536/318 405/555/318 337/356/318 229/355/318
f 405/556/319 321/532/319 223/366/319 337/365/319
f 293/557/320 234/529/320 321/532/320 405/556/320
f 258/558/150 356/559/150 406/560/150 343/561/150
f 343/561/149 406/560/149 152/236/149 46/235/149
f 406/560/149 354/562/149 52/237/149 152/236/149
f 356/559/150 263/563/150 354/562/150 406/560/150
f 46/235/156 152/236/156 407/564/156 338/565/156
f 338/565/155 407/564/155 344/566/155 257/567/155
f 407/564/155 349/568/155 262/569/155 344/566/155
f 152/236/156 52/237/156 349/568/156 407/564/156
f 31/570/321 336/571/321 408/572/321 118/573/321
f 118/573/322 408/572/322 143/251/322 40/250/322
f 408/572/323 343/561/323 46/235/323 143/251/323
f 336/571/324 258/558/324 343/561/324 408/572/324
f 230/574/142 348/575/142 409/576/142 325/577/142
f 325/577/141 409/576/141 345/578/141 225/579/141
f 409/576/141 342/580/141 254/581/141 345/578/141
f 348/575/142 256/582/142 342/580/142 409/576/142
f 40/250/325 143/251/325 410/583/325 59/584/325
f 59/584/326 410/583/326 347/585/326 29/586/326
f 410/583/327 338/565/327 257/567/327 347/585/327
f 143/251/328 46/235/328 338/565/328 410/583/328
f 227/587/144 346/588/144 411/589/144 276/590/144
f 276/590/143 411/589/143 348/575/143 230/574/143
f 411/589/143 339/591/143 256/582/143 348/575/143
f 346/588/144 255/592/144 339/591/144 411/589/144
f 259/593/158 355/594/158 412/595/158 351/596/158
f 351/596/157 412/595/157 368/597/157 263/598/157
f 412/595/160 362/599/160 268/600/160 368/597/160
f 355/594/159 264/601/159 362/599/159 412/595/159
f 261/602/182 367/603/182 413/604/182 353/605/182
f 353/605/181 413/604/181 355/606/181 259/607/181
f 413/604/184 364/608/184 264/609/184 355/606/184
f 367/603/183 266/610/183 364/608/183 413/604/183
f 257/383/166 344/611/166 414/612/166 341/381/166
f 341/381/165 414/612/165 357/613/165 255/382/165
f 414/612/165 352/614/165 260/615/165 357/613/165
f 344/611/166 262/616/166 352/614/166 414/612/166
f 255/592/144 357/617/144 415/618/144 339/591/144
f 339/591/143 415/618/143 358/619/143 256/582/143
f 415/618/143 350/620/143 261/602/143 358/619/143
f 357/617/144 260/621/144 350/620/144 415/618/144
f 256/582/142 358/619/142 416/622/142 342/580/142
f 342/580/141 416/622/141 359/623/141 254/581/141
f 416/622/141 353/605/141 259/607/141 359/623/141
f 358/619/142 261/602/142 353/605/142 416/622/142
f 254/553/168 359/624/168 417/625/168 340/551/168
f 340/551/167 417/625/167 356/626/167 258/552/167
f 417/625/167 351/596/167 263/598/167 356/626/167
f 359/624/168 259/593/168 351/596/168 417/625/168
f 269/627/329 365/628/329 418/629/329 366/630/329
f 366/630/330 418/629/330 364/631/330 266/632/330
f 418/629/172 362/633/172 264/634/172 364/631/172
f 365/628/171 268/635/171 362/633/171 418/629/171
f 267/636/174 360/637/174 419/638/174 363/639/174
f 363/639/173 419/638/173 361/640/173 265/641/173
f 419/638/331 366/630/331 266/632/331 361/640/331
f 360/637/332 269/627/332 366/630/332 419/638/332
f 52/237/190 370/642/190 420/643/190 349/568/190
f 349/568/189 420/643/189 369/644/189 262/569/189
f 420/643/192 360/645/192 267/646/192 369/644/192
f 370/642/191 269/647/191 360/645/191 420/643/191
f 263/563/162 368/648/162 421/649/162 354/562/162
f 354/562/161 421/649/161 370/642/161 52/237/161
f 421/649/164 365/650/164 269/647/164 370/642/164
f 368/648/163 268/651/163 365/650/163 421/649/163
f 262/616/186 369/652/186 422/653/186 352/614/186
f 352/614/185 422/653/185 371/654/185 260/615/185
f 422/653/188 363/655/188 265/656/188 371/654/188
f 369/652/187 267/657/187 363/655/187 422/653/187
f 260/621/178 371/658/178 423/659/178 350/620/178
f 350/620/177 423/659/177 367/603/177 261/602/177
f 423/659/180 361/660/180 266/610/180 367/603/180
f 371/658/179 265/661/179 361/660/179 423/659/179
f 30/662/333 460/663/333 427/664/333 64/665/333
f 459/666/334 458/667/334 425/668/334 426/669/334
f 457/670/335 444/671/335 424/672/335
f 460/673/336 459/666/336 426/669/336 427/674/336
f 458/675/337 457/670/337 424/672/337 425/676/337
f 64/665/338 427/664/338 431/677/338 121/678/338
f 426/679/339 425/680/339 429/681/339 430/682/339
f 424/672/340 444/671/340 428/683/340
f 427/684/341 426/679/341 430/682/341 431/685/341
f 425/676/342 424/672/342 428/683/342 429/686/342
f 430/682/343 429/681/343 433/687/343 434/688/343
f 428/683/344 444/671/344 432/689/344
f 431/685/345 430/682/345 434/688/345 435/690/345
f 429/686/346 428/683/346 432/689/346 433/691/346
f 121/678/347 431/677/347 435/692/347 113/693/347
f 432/689/348 444/671/348 436/694/348
f 435/690/349 434/688/349 438/695/349 439/696/349
f 433/691/350 432/689/350 436/694/350 437/697/350
f 113/693/351 435/692/351 439/698/351 32/699/351
f 434/688/352 433/687/352 437/700/352 438/695/352
f 439/701/353 438/702/353 442/703/353 443/704/353
f 437/697/354 436/694/354 440/705/354 441/706/354
f 32/699/355 439/698/355 443/707/355
f 438/702/356 437/708/356 441/709/356 442/703/356
f 436/694/357 444/671/357 440/705/357
f 443/710/358 442/711/358 447/712/358 448/713/358
f 441/706/359 440/705/359 445/714/359 446/715/359
f 32/699/360 443/707/360 448/716/360 323/717/360
f 442/711/361 441/718/361 446/719/361 447/712/361
f 440/705/362 444/671/362 445/714/362
f 448/713/363 447/712/363 451/720/363 452/721/363
f 446/715/364 445/714/364 449/722/364 450/723/364
f 323/724/365 448/713/365 452/721/365 326/725/365
f 447/712/366 446/719/366 450/726/366 451/720/366
f 445/714/367 444/671/367 449/722/367
f 452/721/368 451/720/368 455/727/368 456/728/368
f 450/723/369 449/722/369 453/729/369 454/730/369
f 326/725/370 452/721/370 456/728/370 274/731/370
f 451/720/371 450/726/371 454/732/371 455/727/371
f 449/722/372 444/671/372 453/729/372
f 454/730/373 453/729/373 457/670/373 458/675/373
f 274/733/374 456/734/374 460/663/374 30/662/374
f 455/735/375 454/736/375 458/667/375 459/666/375
f 453/729/376 444/671/376 457/670/376
f 456/737/377 455/735/377 459/666/377 460/673/377
o Plane
v 0.114785 3.168172 -0.147176
v 0.241619 3.219476 -0.050968
v 0.392332 3.113243 -0.038509
v 0.451395 2.996548 -0.080368
v 0.058355 3.084608 -0.225136
v 0.120534 2.974834 -0.256069
v 0.266675 2.869337 -0.242024
v 0.412840 2.907298 -0.150242
v 0.069556 3.207804 -0.147955
v 0.236851 3.275475 -0.021055
v 0.435374 3.136186 -0.003242
v 0.513190 2.982639 -0.058314
v -0.004876 3.097582 -0.250785
v 0.077139 2.952788 -0.291586
v 0.269476 2.815049 -0.271205
v 0.462516 2.864039 -0.150399
v -0.244694 3.145730 -0.112560
v -0.356265 3.182150 0.006606
v -0.485159 3.059399 0.044541
v -0.533164 2.937901 0.010090
v -0.194252 3.068837 -0.200811
v -0.247165 2.951878 -0.220661
v -0.372363 2.829928 -0.181238
v -0.497737 2.853333 -0.067006
v -0.205673 3.190621 -0.121451
v -0.352836 3.238660 0.035729
v -0.523104 3.077424 0.087395
v -0.586549 2.917902 0.041539
v -0.139139 3.089200 -0.237856
v -0.208933 2.934928 -0.264038
v -0.374465 2.775188 -0.209722
v -0.539664 2.805691 -0.060402
vn 0.3883 0.4506 -0.8038
vn 0.4133 0.4562 -0.7881
vn 0.3947 0.4636 -0.7933
vn -0.3907 -0.4555 0.7999
vn 0.4073 0.4547 -0.7920
vn 0.3889 0.4792 -0.7868
vn 0.3968 0.4622 -0.7930
vn -0.5741 0.3996 -0.7147
vn -0.6086 0.3924 -0.6897
vn -0.5910 0.4018 -0.6995
vn 0.5730 -0.4073 0.7112
vn -0.6036 0.3919 -0.6944
vn -0.5760 0.4275 -0.6967
vn -0.5918 0.4021 -0.6986
vt 0.320886 0.681145
vt 0.293325 0.913443
s 0
usemtl Material
f 467/738/378 468/738/378 476/738/378 475/738/378
f 465/738/379 466/738/379 474/738/379 473/738/379
f 463/738/380 462/738/380 470/738/380 471/738/380
f 461/738/379 465/738/379 473/738/379 469/738/379
f 464/738/381 468/738/381 476/738/381 472/738/381
f 466/738/382 467/738/382 475/738/382 474/738/382
f 464/738/383 463/738/383 471/738/383 472/738/383
f 462/738/379 461/738/379 469/738/379 470/738/379
f 465/739/384 461/739/384 462/739/384 463/739/384 464/739/384 468/739/384 467/739/384 466/739/384
f 483/738/385 491/738/385 492/738/385 484/738/385
f 481/738/386 489/738/386 490/738/386 482/738/386
f 479/738/387 487/738/387 486/738/387 478/738/387
f 477/738/386 485/738/386 489/738/386 481/738/386
f 480/738/388 488/738/388 492/738/388 484/738/388
f 482/738/389 490/738/389 491/738/389 483/738/389
f 480/738/390 488/738/390 487/738/390 479/738/390
f 478/738/386 486/738/386 485/738/386 477/738/386
f 481/739/391 482/739/391 483/739/391 484/739/391 480/739/391 479/739/391 478/739/391 477/739/391
